#!OML:ASF E:\Steps\Project 1\Capture day 1\Session 2\Subject.ASF
:FULLY-SPECIFIED
:DEGREES
592
root 8.4897 18.4861 -5.27958 -159.937 -4.16384 180.891
lowerback -16.1598 -4.39833 -5.81897
upperback 2.84391 -4.73384 0.171814
thorax 12.7908 -2.65603 2.18503
lowerneck -3.08814 -2.54031 -1.06226
upperneck 19.6385 -3.01927 4.60416
head 6.55292 -0.717183 1.50751
rclavicle -2.0276e-014 -3.49861e-014
rhumerus -47.674 -21.5024 -69.7038
rradius 30.1794
rwrist 2.10497
rhand -6.77967 -54.6851
rfingers 7.12502
rthumb 19.0827 -83.769
lclavicle -2.0276e-014 -3.49861e-014
lhumerus -22.1141 -3.62299 82.2372
lradius 33.5525
lwrist 0.141615
lhand -21.7336 -12.4826
lfingers 7.12502
lthumb 4.66599 17.446
rfemur -73.0799 -2.00002 22.5927
rtibia 55.9588
rfoot -22.0242 -6.84499
rtoes -24.3168
lfemur -19.0525 -8.63963 -20.7634
ltibia 15.0043
lfoot -12.5655 -1.12604
ltoes -19.1387
593
root 8.4925 18.4736 -5.3651 -159.955 -4.26186 180.954
lowerback -16.3282 -4.4282 -5.64187
upperback 2.86067 -4.80667 0.263455
thorax 12.909 -2.68097 2.15554
lowerneck -3.36842 -2.30193 -0.460197
upperneck 19.1336 -2.7433 4.21377
head 6.41893 -0.605391 1.2913
rclavicle 3.57812e-014 2.62396e-014
rhumerus -47.7399 -21.5055 -69.7419
rradius 30.0835
rwrist 2.42079
rhand -6.7679 -54.6238
rfingers 7.12502
rthumb 19.094 -83.7066
lclavicle 3.57812e-014 2.62396e-014
lhumerus -22.3194 -3.48455 82.4044
lradius 33.6048
lwrist 0.383472
lhand -21.2775 -12.3084
lfingers 7.12502
lthumb 5.10646 17.61
rfemur -72.7249 -1.94616 22.6231
rtibia 55.3517
rfoot -21.6574 -6.71026
rtoes -24.2322
lfemur -18.6984 -8.56832 -20.707
ltibia 15.0103
lfoot -12.7852 -1.377
ltoes -17.5289
594
root 8.49689 18.4655 -5.44518 -159.955 -4.40655 180.964
lowerback -16.357 -4.45004 -5.52085
upperback 2.77865 -4.86898 0.349311
thorax 12.8337 -2.70199 2.16724
lowerneck -3.19963 -2.57036 -1.068
upperneck 19.7177 -3.06283 4.61348
head 6.59949 -0.733779 1.50842
rclavicle 5.96354e-016 2.70347e-014
rhumerus -47.9308 -21.6696 -69.5856
rradius 29.8609
rwrist 2.91469
rhand -6.67701 -54.5032
rfingers 7.12502
rthumb 19.1814 -83.5773
lclavicle 5.96354e-016 2.70347e-014
lhumerus -22.7314 -3.51699 82.6445
lradius 33.5514
lwrist 0.402632
lhand -21.2072 -11.9549
lfingers 7.12502
lthumb 5.17432 17.9619
rfemur -72.2797 -1.97198 22.6351
rtibia 54.6281
rfoot -21.1804 -6.8386
rtoes -24.5761
lfemur -18.3697 -8.67149 -20.6623
ltibia 14.9729
lfoot -13.002 -1.42957
ltoes -17.1854
595
root 8.50254 18.4584 -5.52213 -159.869 -4.56885 180.839
lowerback -16.4474 -4.5011 -5.52695
upperback 2.7189 -4.93689 0.397724
thorax 12.8302 -2.73477 2.20144
lowerneck -2.751 -2.78149 -1.52937
upperneck 19.6106 -3.36471 5.07619
head 6.511 -0.87665 1.71838
rclavicle 2.28602e-014 3.18055e-014
rhumerus -48.0913 -21.9124 -69.4709
rradius 29.8187
rwrist 3.21141
rhand -6.46567 -54.5479
rfingers 7.12502
rthumb 19.3847 -83.6017
lclavicle 2.28602e-014 3.18055e-014
lhumerus -22.9622 -3.72687 82.8715
lradius 33.3076
lwrist 0.436139
lhand -21.4303 -12.0365
lfingers 7.12502
lthumb 4.9589 17.8855
rfemur -71.8907 -1.99125 22.4159
rtibia 53.8953
rfoot -20.6604 -7.11712
rtoes -25.4137
lfemur -18.1441 -8.82512 -20.7552
ltibia 14.9544
lfoot -13.2165 -1.45186
ltoes -18.8989
596
root 8.50682 18.447 -5.60423 -159.806 -4.67508 180.635
lowerback -16.5708 -4.57259 -5.59894
upperback 2.70235 -5.01515 0.442274
thorax 12.9036 -2.77851 2.26082
lowerneck -1.70365 -2.58505 -1.73559
upperneck 19.3511 -2.97565 4.82422
head 6.23112 -0.725225 1.70483
rclavicle 3.97569e-016 -1.82882e-014
rhumerus -48.0485 -22.0041 -69.4475
rradius 29.623
rwrist 3.39724
rhand -6.39739 -54.4997
rfingers 7.12502
rthumb 19.4503 -83.5468
lclavicle 3.97569e-016 -1.82882e-014
lhumerus -23.1861 -3.79959 83.1109
lradius 33.1573
lwrist 0.489322
lhand -21.5501 -12.3524
lfingers 7.12502
lthumb 4.84321 17.5723
rfemur -71.4938 -1.91682 21.9902
rtibia 53.2778
rfoot -20.1313 -7.33849
rtoes -26.0799
lfemur -17.85 -8.95202 -20.9748
ltibia 14.9359
lfoot -13.3957 -1.6763
ltoes -17.868
597
root 8.50979 18.4342 -5.69336 -159.724 -4.75911 180.556
lowerback -16.821 -4.60388 -5.52114
upperback 2.68086 -5.0677 0.535546
thorax 13.0338 -2.80104 2.29007
lowerneck -1.41323 -2.47729 -2.41805
upperneck 18.6642 -2.95946 5.77096
head 5.98394 -0.729976 2.11713
rclavicle 2.10712e-014 2.3059e-014
rhumerus -48.0909 -21.6096 -69.6518
rradius 29.7201
rwrist 3.18573
rhand -6.4458 -54.7913
rfingers 7.12502
rthumb 19.4038 -83.8432
lclavicle 2.10712e-014 2.3059e-014
lhumerus -23.5034 -3.86452 83.4401
lradius 33.1801
lwrist 0.710166
lhand -21.4602 -12.0973
lfingers 7.12502
lthumb 4.92996 17.8253
rfemur -71.0046 -1.82418 21.7451
rtibia 52.6259
rfoot -19.6988 -7.44916
rtoes -26.7736
lfemur -17.5586 -9.0391 -21.0761
ltibia 14.949
lfoot -13.5897 -1.88657
ltoes -16.3526
598
root 8.51432 18.4242 -5.77798 -159.557 -4.87857 180.518
lowerback -17.0338 -4.55799 -5.3457
upperback 2.59734 -5.03696 0.577336
thorax 13.0463 -2.77347 2.2374
lowerneck -3.2468 -2.48117 -1.12197
upperneck 19.5432 -2.96003 4.70863
head 6.55065 -0.688292 1.55282
rclavicle -3.81667e-014 -2.70347e-014
rhumerus -48.4056 -21.3851 -69.8475
rradius 30.0902
rwrist 2.86652
rhand -6.43465 -55.054
rfingers 7.12502
rthumb 19.4145 -84.1048
lclavicle -3.81667e-014 -2.70347e-014
lhumerus -23.8342 -4.31284 83.7445
lradius 33.1587
lwrist 1.062
lhand -21.3327 -11.4669
lfingers 7.12502
lthumb 5.0531 18.4529
rfemur -70.6032 -1.7008 21.5241
rtibia 52.1959
rfoot -19.5416 -7.66905
rtoes -28.2795
lfemur -17.4278 -9.11328 -21.0832
ltibia 14.9897
lfoot -13.7456 -1.99847
ltoes -16.2726
599
root 8.51891 18.4125 -5.86284 -159.443 -5.02026 180.438
lowerback -17.0788 -4.53224 -5.24093
upperback 2.49475 -5.02955 0.622066
thorax 12.9472 -2.76171 2.23232
lowerneck -2.27088 -2.67762 -1.8498
upperneck 19.3247 -3.21038 5.32803
head 6.33876 -0.8124 1.86528
rclavicle -3.91606e-014 7.15625e-015
rhumerus -48.5917 -21.6102 -69.6992
rradius 30.0229
rwrist 3.00598
rhand -6.41162 -54.5788
rfingers 7.12502
rthumb 19.4366 -83.6274
lclavicle -3.91606e-014 7.15625e-015
lhumerus -24.1765 -4.63811 84.0114
lradius 33.048
lwrist 1.21984
lhand -21.2653 -11.3722
lfingers 7.12502
lthumb 5.11821 18.546
rfemur -70.21 -1.62092 21.2538
rtibia 51.9177
rfoot -19.5123 -7.78364
rtoes -28.9628
lfemur -17.2239 -9.17424 -21.1329
ltibia 14.9816
lfoot -13.7528 -2.15823
ltoes -16.3051
600
root 8.52311 18.3961 -5.95676 -159.295 -5.19861 180.36
lowerback -17.3705 -4.61428 -5.19434
upperback 2.48451 -5.14876 0.765813
thorax 13.1295 -2.82041 2.31202
lowerneck -1.19678 -2.66219 -2.6742
upperneck 18.5087 -3.2183 5.95082
head 5.91558 -0.865841 2.20304
rclavicle 2.46493e-014 -2.38542e-015
rhumerus -48.4983 -21.3719 -69.7587
rradius 30.1083
rwrist 2.99854
rhand -6.30835 -54.5036
rfingers 7.12502
rthumb 19.5359 -83.5421
lclavicle 2.46493e-014 -2.38542e-015
lhumerus -24.3583 -4.54698 84.3142
lradius 32.8531
lwrist 1.18085
lhand -21.5704 -12.0494
lfingers 7.12502
lthumb 4.82355 17.8756
rfemur -69.7599 -1.6621 21.0658
rtibia 51.3933
rfoot -19.1807 -7.62707
rtoes -28.787
lfemur -17.037 -9.20034 -21.2103
ltibia 15.0976
lfoot -13.8636 -2.29585
ltoes -18.4187
601
root 8.52937 18.3833 -6.04715 -159.089 -5.48716 180.225
lowerback -17.632 -4.72237 -5.15281
upperback 2.44359 -5.30068 0.866008
thorax 13.2576 -2.89195 2.33872
lowerneck 0.958747 -2.36504 -3.33445
upperneck 17.0928 -2.79849 6.2862
head 5.09859 -0.742275 2.44366
rclavicle 8.74653e-015 1.19271e-014
rhumerus -48.5517 -21.1063 -69.9477
rradius 30.4744
rwrist 2.96079
rhand -6.02918 -54.8608
rfingers 7.12502
rthumb 19.8043 -83.8718
lclavicle 8.74653e-015 1.19271e-014
lhumerus -24.4784 -4.40252 84.5319
lradius 32.6062
lwrist 1.08412
lhand -21.6255 -12.1947
lfingers 7.12502
lthumb 4.77042 17.7316
rfemur -69.37 -1.71139 20.7429
rtibia 50.9414
rfoot -18.5184 -7.54717
rtoes -29.3983
lfemur -17.0265 -9.30167 -21.2905
ltibia 15.3954
lfoot -14.0718 -2.39594
ltoes -20.2003
602
root 8.53431 18.3736 -6.12673 -158.862 -5.42349 180.203
lowerback -17.7294 -4.61582 -4.9775
upperback 2.34134 -5.19366 0.860281
thorax 13.1668 -2.82686 2.26479
lowerneck 1.2742 -2.33239 -3.08
upperneck 16.5883 -2.76919 6.22687
head 4.88398 -0.73966 2.38036
rclavicle -2.14687e-014 3.97569e-015
rhumerus -48.6141 -21.6265 -69.8328
rradius 30.3925
rwrist 3.43603
rhand -5.89471 -54.8556
rfingers 7.12502
rthumb 19.9336 -83.8532
lclavicle -2.14687e-014 3.97569e-015
lhumerus -24.5716 -4.45579 84.6411
lradius 32.329
lwrist 1.00011
lhand -21.3006 -11.897
lfingers 7.12502
lthumb 5.08408 18.022
rfemur -69.2026 -1.39198 20.5098
rtibia 50.9436
rfoot -18.1707 -7.56062
rtoes -29.0705
lfemur -17.0791 -9.33573 -21.2847
ltibia 15.5916
lfoot -14.2551 -2.27676
ltoes -17.5504
603
root 8.54002 18.3697 -6.21896 -158.892 -5.59959 180.123
lowerback -17.7445 -4.60114 -4.85214
upperback 2.36369 -5.20047 0.864818
thorax 13.1899 -2.82104 2.19578
lowerneck 0.708407 -2.62923 -3.09755
upperneck 17.0527 -3.20732 6.49335
head 5.14798 -0.916082 2.44843
rclavicle 3.97569e-016 1.11319e-014
rhumerus -48.5525 -21.7343 -70.0109
rradius 30.379
rwrist 3.35925
rhand -6.27735 -55.0064
rfingers 7.12502
rthumb 19.5657 -84.0419
lclavicle 3.97569e-016 1.11319e-014
lhumerus -24.6969 -4.57513 84.7606
lradius 32.0484
lwrist 0.90404
lhand -21.2796 -12.0949
lfingers 7.12502
lthumb 5.10436 17.8236
rfemur -68.4508 -1.45297 20.4186
rtibia 50.4723
rfoot -17.814 -7.8505
rtoes -27.4701
lfemur -16.6841 -9.55644 -21.3237
ltibia 15.5313
lfoot -14.3592 -2.2403
ltoes -17.5953
604
root 8.54519 18.3658 -6.31442 -158.875 -5.82591 179.958
lowerback -17.7512 -4.68374 -4.82588
upperback 2.32927 -5.32461 0.92922
thorax 13.1696 -2.87894 2.216
lowerneck 0.464957 -2.72748 -3.0825
upperneck 17.1448 -3.34409 6.42787
head 5.2238 -0.98396 2.41737
rclavicle -4.96962e-015 1.59028e-014
rhumerus -48.5632 -21.408 -70.2076
rradius 30.5947
rwrist 3.06945
rhand -6.50351 -55.0757
rfingers 7.12502
rthumb 19.3483 -84.1332
lclavicle -4.96962e-015 1.59028e-014
lhumerus -25.0643 -4.47125 84.9459
lradius 31.9077
lwrist 0.712975
lhand -21.4505 -12.6694
lfingers 7.12502
lthumb 4.93934 17.253
rfemur -67.7772 -1.79443 20.4827
rtibia 49.9531
rfoot -17.9628 -8.21302
rtoes -22.5285
lfemur -16.2978 -9.77605 -21.4682
ltibia 15.4532
lfoot -14.4061 -2.16725
ltoes -18.4827
605
root 8.55346 18.3575 -6.40137 -158.724 -5.98842 179.788
lowerback -17.7266 -4.75807 -4.85842
upperback 2.2956 -5.42788 1.00731
thorax 13.1378 -2.93234 2.29278
lowerneck -0.0152579 -2.83437 -3.0669
upperneck 17.3405 -3.50678 6.41373
head 5.37405 -1.0573 2.39917
rclavicle 5.96354e-014 9.54166e-015
rhumerus -48.3845 -21.7119 -70.0516
rradius 30.5119
rwrist 3.45543
rhand -6.23695 -55.1551
rfingers 7.12502
rthumb 19.6046 -84.1866
lclavicle 5.96354e-014 9.54166e-015
lhumerus -25.1665 -4.37589 85.119
lradius 31.6563
lwrist 0.687045
lhand -21.5914 -13.0855
lfingers 7.12502
lthumb 4.80332 16.84
rfemur -67.6945 -2.1031 20.6785
rtibia 50.2165
rfoot -18.7314 -8.57066
rtoes -16.8638
lfemur -16.1797 -9.92982 -21.59
ltibia 15.5704
lfoot -14.4425 -2.10958
ltoes -19.7551
